# xmcd CD database file
#
# Track frame offsets:
#	150
#	13375
#	26427
#	39599
#	54596
#	68351
#	82143
#	95980
#	109855
#	123667
#	137547
#	151301
#	165414
#	179572
#	193654
#	208342
#
# Disc length: 3061 seconds
#
# Revision: 0
# Processed by: cddbd v1.5.2PL0 Copyright (c) Steve Scherf et al.
# Submitted via: CDex 1.51
#
DISCID=e50bf310
DTITLE=Count Basie - The Legends Of Jazz (Fivestar Collection)
DYEAR=1900
DGENRE=Jazz
TTITLE0=How Long, How Long Blues
TTITLE1=Sent For You Yesterday
TTITLE2=London Bridge Is Falling Down
TTITLE3=You Do The Darnest Things, Baby
TTITLE4=Doggin' Around
TTITLE5=I'll Always Be In Love With You
TTITLE6=Jumpin' At The Woodside
TTITLE7=Topsy
TTITLE8=Stop Beatin' Round The Mulberry Bush
TTITLE9=Texas Shuffle
TTITLE10=Blues In The Dark
TTITLE11=Dinah
TTITLE12=Let Me Dream
TTITLE13=Don't You Miss Your Baby
TTITLE14=Every Tub
TTITLE15=Oh! Lady Be Good
EXTD=
EXTT0=
EXTT1=
EXTT2=
EXTT3=
EXTT4=
EXTT5=
EXTT6=
EXTT7=
EXTT8=
EXTT9=
EXTT10=
EXTT11=
EXTT12=
EXTT13=
EXTT14=
EXTT15=
PLAYORDER=
